<svg xmlns="http://www.w3.org/2000/svg" viewBox="0 0 512 512" width="512" height="512">
  <defs>
    <linearGradient id="g" x1="0" y1="0" x2="1" y2="1">
      <stop offset="0" stop-color="#3B82F6"/>
      <stop offset="0.55" stop-color="#2563EB"/>
      <stop offset="1" stop-color="#1D4ED8"/>
    </linearGradient>
  </defs>
  <rect width="512" height="512" rx="116" fill="url(#g)"/>
  <g transform="translate(100,100) scale(13)" fill="none" stroke="#ffffff" stroke-width="1.7" stroke-linecap="round" stroke-linejoin="round">
    <path d="M11 10.27 7 3.34"/>
    <path d="m11 13.73-4 6.93"/>
    <path d="M12 22v-2"/>
    <path d="M12 2v2"/>
    <path d="M14 12h8"/>
    <path d="m17 20.66-1-1.73"/>
    <path d="m17 3.34-1 1.73"/>
    <path d="M2 12h2"/>
    <path d="m20.66 17-1.73-1"/>
    <path d="m20.66 7-1.73 1"/>
    <path d="m3.34 17 1.73-1"/>
    <path d="m3.34 7 1.73 1"/>
    <circle cx="12" cy="12" r="2"/>
    <circle cx="12" cy="12" r="8"/>
  </g>
</svg>
